<?xml version="1.0" encoding="utf-8"?>
<!-- Generator: Adobe Illustrator 17.0.0, SVG Export Plug-In . SVG Version: 6.00 Build 0)  -->
<!DOCTYPE svg PUBLIC "-//W3C//DTD SVG 1.1//EN" "http://www.w3.org/Graphics/SVG/1.1/DTD/svg11.dtd">
<svg version="1.1" id="Layer_1" xmlns="http://www.w3.org/2000/svg" xmlns:xlink="http://www.w3.org/1999/xlink" x="0px" y="0px"
	 width="120px" height="120px" viewBox="0 0 120 120" enable-background="new 0 0 120 120" xml:space="preserve">
<g>
	<path fill="#FFFFFF" d="M92.5,18.75h-65c-1.381,0-2.5,1.119-2.5,2.5v77.5c0,1.381,1.119,2.5,2.5,2.5h65c1.381,0,2.5-1.119,2.5-2.5
		v-77.5C95,19.869,93.881,18.75,92.5,18.75z M90,96.25H30v-72.5h60V96.25z"/>
	<path fill="#FFFFFF" d="M80.119,66.255H37.26c-1.381,0-2.5,1.119-2.5,2.5c0,1.381,1.119,2.5,2.5,2.5h42.859
		c1.381,0,2.5-1.119,2.5-2.5C82.619,67.374,81.5,66.255,80.119,66.255z"/>
	<path fill="#FFFFFF" d="M37.26,81.255h37.859c1.381,0,2.5-1.119,2.5-2.5c0-1.381-1.119-2.5-2.5-2.5H37.26
		c-1.381,0-2.5,1.119-2.5,2.5C34.76,80.136,35.879,81.255,37.26,81.255z"/>
	<path fill="#FFFFFF" d="M80.119,86.255H37.26c-1.381,0-2.5,1.119-2.5,2.5c0,1.381,1.119,2.5,2.5,2.5h42.859
		c1.381,0,2.5-1.119,2.5-2.5C82.619,87.374,81.5,86.255,80.119,86.255z"/>
	<path fill="#FFFFFF" d="M75.368,36.208h6.849c1.381,0,2.5-1.119,2.5-2.5c0-1.381-1.119-2.5-2.5-2.5h-6.849
		c-1.381,0-2.5,1.119-2.5,2.5C72.868,35.089,73.987,36.208,75.368,36.208z"/>
	<path fill="#FFFFFF" d="M75.368,44.53h6.849c1.381,0,2.5-1.119,2.5-2.5c0-1.381-1.119-2.5-2.5-2.5h-6.849
		c-1.381,0-2.5,1.119-2.5,2.5C72.868,43.411,73.987,44.53,75.368,44.53z"/>
	<path fill="#FFFFFF" d="M75.368,52.853h6.849c1.381,0,2.5-1.119,2.5-2.5c0-1.381-1.119-2.5-2.5-2.5h-6.849
		c-1.381,0-2.5,1.119-2.5,2.5C72.868,51.734,73.987,52.853,75.368,52.853z"/>
	<path fill="#FFFFFF" d="M69.706,39.918c-0.06-7.382-6.113-13.438-13.497-13.497l-2.016-0.016v15.529h15.528L69.706,39.918z
		 M58.194,37.934v-7.281c3.605,0.813,6.468,3.676,7.28,7.281H58.194z"/>
	<path fill="#FFFFFF" d="M48.229,61.511c7.505,0,13.611-6.106,13.609-13.708v-2H50.325V36.29l-0.042-1.933l-1.93-0.067l-0.124-0.002
		c-7.505,0-13.611,6.106-13.611,13.611c0,3.665,1.436,7.102,4.044,9.679C41.227,60.114,44.625,61.511,48.229,61.511z M46.325,38.488
		v11.315h11.326c-0.886,4.391-4.774,7.707-9.421,7.707c-2.544,0-4.944-0.986-6.756-2.777c-1.841-1.82-2.855-4.247-2.855-6.834
		C38.618,43.266,41.912,39.39,46.325,38.488z"/>
</g>
</svg>
