<?xml version="1.0" encoding="utf-8"?>
<!-- Generator: Adobe Illustrator 17.0.0, SVG Export Plug-In . SVG Version: 6.00 Build 0)  -->
<!DOCTYPE svg PUBLIC "-//W3C//DTD SVG 1.1//EN" "http://www.w3.org/Graphics/SVG/1.1/DTD/svg11.dtd">
<svg version="1.1" id="Layer_1" xmlns="http://www.w3.org/2000/svg" xmlns:xlink="http://www.w3.org/1999/xlink" x="0px" y="0px"
	 width="120px" height="120px" viewBox="0 0 120 120" enable-background="new 0 0 120 120" xml:space="preserve">
<g>
	<path fill="#E1464B" d="M59.922,50.039l-9.481-9.481c0.903-2.152,1.404-4.515,1.404-6.996c0-9.994-8.102-18.096-18.096-18.096
		c-2.513,0-4.905,0.514-7.081,1.44l9.111,9.111l-0.127,9.336l-9.829,0.62l-8.937-8.937c-0.785,2.027-1.233,4.223-1.233,6.527
		c0,9.994,8.102,18.096,18.096,18.096c2.32,0,4.53-0.453,6.568-1.248l9.616,9.616L59.922,50.039z"/>
	<path fill="#B9333D" d="M102.289,92.679L68.582,58.918l-9.988,9.988l33.753,33.716c1.272,1.272,3.03,2.059,4.971,2.059
		c3.883,0,7.03-3.148,7.03-7.03C104.349,95.709,103.562,93.952,102.289,92.679z M96.849,99.891c-1.601,0-2.899-1.298-2.899-2.899
		s1.298-2.899,2.899-2.899s2.899,1.298,2.899,2.899S98.451,99.891,96.849,99.891z"/>
	<g>
		<path fill="#E1464B" d="M98.25,15.467L84.203,23.07l-2.464,6.464l1.414,1.414L39.249,74.853l-2.978-2.978L17.18,90.611
			c-1.522,1.403-2.481,3.406-2.481,5.639c0,2.215,0.944,4.205,2.445,5.606L100.92,18.08L98.25,15.467z"/>
		<path fill="#B9333D" d="M17.144,101.856c1.371,1.28,3.207,2.07,5.231,2.07c2.09,0,3.983-0.838,5.367-2.193l19.383-19.003
			l-3.368-3.369l43.905-43.905l1.414,1.414l6.464-2.464l7.961-13.8l-2.58-2.526L17.144,101.856z"/>
	</g>
</g>
</svg>
