<?xml version="1.0" encoding="utf-8"?>
<!-- Generator: Adobe Illustrator 17.0.0, SVG Export Plug-In . SVG Version: 6.00 Build 0)  -->
<!DOCTYPE svg PUBLIC "-//W3C//DTD SVG 1.1//EN" "http://www.w3.org/Graphics/SVG/1.1/DTD/svg11.dtd">
<svg version="1.1" id="Layer_1" xmlns="http://www.w3.org/2000/svg" xmlns:xlink="http://www.w3.org/1999/xlink" x="0px" y="0px"
	 width="120px" height="120px" viewBox="0 0 120 120" enable-background="new 0 0 120 120" xml:space="preserve">
<g>
	<path fill="#FFFFFF" d="M92.167,21.955H81.73c-1.032-2.909-3.804-5-7.063-5H70.23c-1.408-1.57-3.43-2.5-5.562-2.5h-10
		c-2.132,0-4.154,0.931-5.563,2.5h-4.438c-3.259,0-6.03,2.092-7.063,5H27.167c-1.381,0-2.5,1.119-2.5,2.5v77.5
		c0,1.381,1.119,2.5,2.5,2.5h65c1.381,0,2.5-1.119,2.5-2.5v-77.5C94.667,23.074,93.548,21.955,92.167,21.955z M42.167,24.455
		c0-1.378,1.121-2.5,2.5-2.5h5.694c0.89,0,1.713-0.473,2.161-1.243c0.458-0.787,1.26-1.257,2.146-1.257h10
		c0.886,0,1.688,0.47,2.146,1.257c0.448,0.77,1.271,1.243,2.161,1.243h5.692c1.379,0,2.5,1.122,2.5,2.5s-1.121,2.5-2.5,2.5h-30
		C43.288,26.955,42.167,25.833,42.167,24.455L42.167,24.455z M89.667,99.455h-60v-72.5h7.938c1.033,2.908,3.805,5,7.063,5h30
		c3.258,0,6.029-2.092,7.063-5h7.936V99.455z"/>
	<path fill="#FFFFFF" d="M52.167,41.955c0,1.381,1.119,2.5,2.5,2.5h27.5c1.381,0,2.5-1.119,2.5-2.5s-1.119-2.5-2.5-2.5h-27.5
		C53.286,39.455,52.167,40.574,52.167,41.955z"/>
	<path fill="#FFFFFF" d="M54.667,54.455h22.5c1.381,0,2.5-1.119,2.5-2.5s-1.119-2.5-2.5-2.5h-22.5c-1.381,0-2.5,1.119-2.5,2.5
		S53.286,54.455,54.667,54.455z"/>
	<path fill="#FFFFFF" d="M82.167,59.455h-27.5c-1.381,0-2.5,1.119-2.5,2.5s1.119,2.5,2.5,2.5h27.5c1.381,0,2.5-1.119,2.5-2.5
		S83.548,59.455,82.167,59.455z"/>
	<path fill="#FFFFFF" d="M54.667,74.455h22.5c1.381,0,2.5-1.119,2.5-2.5s-1.119-2.5-2.5-2.5h-22.5c-1.381,0-2.5,1.119-2.5,2.5
		S53.286,74.455,54.667,74.455z"/>
	<path fill="#FFFFFF" d="M82.167,79.455h-27.5c-1.381,0-2.5,1.119-2.5,2.5s1.119,2.5,2.5,2.5h27.5c1.381,0,2.5-1.119,2.5-2.5
		S83.548,79.455,82.167,79.455z"/>
	<path fill="#FFFFFF" d="M77.167,89.455h-22.5c-1.381,0-2.5,1.119-2.5,2.5s1.119,2.5,2.5,2.5h22.5c1.381,0,2.5-1.119,2.5-2.5
		S78.548,89.455,77.167,89.455z"/>
	<path fill="#FFFFFF" d="M45.399,40.187l-5.732,5.732l-3.232-3.232c-0.977-0.977-2.559-0.977-3.535,0
		c-0.977,0.976-0.977,2.559,0,3.535l5,5c0.488,0.489,1.127,0.733,1.767,0.733s1.279-0.244,1.768-0.732l7.5-7.5
		c0.977-0.976,0.977-2.559,0-3.535C47.958,39.211,46.376,39.211,45.399,40.187z"/>
	<path fill="#FFFFFF" d="M45.399,60.187l-5.732,5.733l-3.232-3.232c-0.977-0.977-2.559-0.977-3.535,0
		c-0.976,0.977-0.977,2.559,0,3.535l5,5c0.488,0.488,1.127,0.732,1.767,0.732s1.279-0.244,1.768-0.732l7.5-7.5
		c0.977-0.977,0.977-2.559,0-3.535S46.376,59.211,45.399,60.187z"/>
	<path fill="#FFFFFF" d="M45.399,80.187l-5.732,5.733l-3.232-3.232c-0.977-0.977-2.559-0.977-3.535,0
		c-0.976,0.977-0.977,2.559,0,3.535l5,5c0.488,0.488,1.127,0.732,1.767,0.732s1.279-0.244,1.768-0.732l7.5-7.5
		c0.977-0.977,0.977-2.559,0-3.535S46.376,79.211,45.399,80.187z"/>
</g>
</svg>
