<?xml version="1.0" encoding="utf-8"?>
<!-- Generator: Adobe Illustrator 17.0.0, SVG Export Plug-In . SVG Version: 6.00 Build 0)  -->
<!DOCTYPE svg PUBLIC "-//W3C//DTD SVG 1.1//EN" "http://www.w3.org/Graphics/SVG/1.1/DTD/svg11.dtd">
<svg version="1.1" id="Layer_1" xmlns="http://www.w3.org/2000/svg" xmlns:xlink="http://www.w3.org/1999/xlink" x="0px" y="0px"
	 width="120px" height="120px" viewBox="0 0 120 120" enable-background="new 0 0 120 120" xml:space="preserve">
<g>
	<defs>
		<path id="SVGID_1_" d="M86.81,50.869c-3.865,0-7.01-3.145-7.01-7.01c0-3.865,3.145-7.009,7.01-7.009
			c3.865,0,7.01,3.145,7.01,7.009C93.82,47.724,90.675,50.869,86.81,50.869z M86.81,31.033c-7.072,0-12.826,5.753-12.826,12.826
			c0,6.133,4.33,11.268,10.092,12.527C84.029,56.591,84,56.803,84,57.022v25.067c0,10.178-8.279,18.457-18.455,18.457
			c-10.177,0-18.456-8.279-18.456-18.457v-3.672c10.373-1.419,21.373-10.072,21.373-17.501V29.9c0-5.984-3.634-11.131-8.811-13.36
			c-0.747-2.484-3.025-4.306-5.752-4.306c-3.332,0-6.033,2.701-6.033,6.033c0,3.332,2.701,6.033,6.033,6.033
			c1.733,0,3.285-0.741,4.385-1.912c2.594,1.513,4.361,4.295,4.361,7.511v31.018c0,4.141-9.756,11.908-18.417,11.908
			s-18.417-7.768-18.417-11.908V29.9c0-3.208,1.76-5.986,4.345-7.501c1.1,1.166,2.649,1.902,4.378,1.902
			c3.332,0,6.033-2.701,6.033-6.033c0-3.332-2.701-6.033-6.033-6.033c-2.733,0-5.013,1.828-5.756,4.319
			c-5.161,2.235-8.783,7.373-8.783,13.347v31.018c0,7.405,10.932,16.027,21.276,17.486v3.686c0,13.385,10.889,24.273,24.271,24.273
			s24.273-10.889,24.273-24.274V57.022c0-0.237-0.036-0.464-0.09-0.685c5.671-1.325,9.91-6.412,9.91-12.479
			C99.635,36.786,93.882,31.033,86.81,31.033z"/>
	</defs>
	<use xlink:href="#SVGID_1_"  overflow="visible" fill-rule="evenodd" clip-rule="evenodd" fill="#FFFFFF"/>
	<clipPath id="SVGID_2_">
		<use xlink:href="#SVGID_1_"  overflow="visible"/>
	</clipPath>
</g>
</svg>
