<?xml version="1.0" encoding="utf-8"?>
<!-- Generator: Adobe Illustrator 17.0.0, SVG Export Plug-In . SVG Version: 6.00 Build 0)  -->
<!DOCTYPE svg PUBLIC "-//W3C//DTD SVG 1.1//EN" "http://www.w3.org/Graphics/SVG/1.1/DTD/svg11.dtd">
<svg version="1.1" id="Layer_1" xmlns="http://www.w3.org/2000/svg" xmlns:xlink="http://www.w3.org/1999/xlink" x="0px" y="0px"
	 width="120px" height="120px" viewBox="0 0 120 120" enable-background="new 0 0 120 120" xml:space="preserve">
<g>
	<polygon fill="#E1464B" points="63.631,12.397 56.653,12.397 56.653,18.451 50.599,18.451 50.599,25.43 56.653,25.43 
		56.653,31.484 63.631,31.484 63.631,25.43 69.687,25.43 69.687,18.451 63.631,18.451 	"/>
	<rect x="18.601" y="84.334" fill="none" stroke="#E1464B" stroke-width="2" stroke-miterlimit="10" width="8" height="8"/>
	<rect x="78.601" y="84.334" fill="none" stroke="#B9333D" stroke-width="2" stroke-miterlimit="10" width="8" height="8"/>
	<rect x="93.601" y="84.334" fill="none" stroke="#B9333D" stroke-width="2" stroke-miterlimit="10" width="8" height="8"/>
	<rect x="18.601" y="70.334" fill="none" stroke="#E1464B" stroke-width="2" stroke-miterlimit="10" width="8" height="8"/>
	<rect x="33.601" y="70.334" fill="none" stroke="#E1464B" stroke-width="2" stroke-miterlimit="10" width="8" height="8"/>
	<rect x="78.601" y="70.334" fill="none" stroke="#B9333D" stroke-width="2" stroke-miterlimit="10" width="8" height="8"/>
	<rect x="93.601" y="70.334" fill="none" stroke="#B9333D" stroke-width="2" stroke-miterlimit="10" width="8" height="8"/>
	<rect x="63.601" y="70.334" fill="none" stroke="#B9333D" stroke-width="2" stroke-miterlimit="10" width="8" height="8"/>
	<rect x="18.601" y="56.334" fill="none" stroke="#E1464B" stroke-width="2" stroke-miterlimit="10" width="8" height="8"/>
	<rect x="33.601" y="56.334" fill="none" stroke="#E1464B" stroke-width="2" stroke-miterlimit="10" width="8" height="8"/>
	<rect x="78.601" y="56.334" fill="none" stroke="#B9333D" stroke-width="2" stroke-miterlimit="10" width="8" height="8"/>
	<rect x="93.601" y="56.334" fill="none" stroke="#B9333D" stroke-width="2" stroke-miterlimit="10" width="8" height="8"/>
	<rect x="48.601" y="56.334" fill="none" stroke="#E1464B" stroke-width="2" stroke-miterlimit="10" width="8" height="8"/>
	<rect x="18.601" y="42.334" fill="none" stroke="#E1464B" stroke-width="2" stroke-miterlimit="10" width="8" height="8"/>
	<rect x="33.601" y="42.334" fill="none" stroke="#E1464B" stroke-width="2" stroke-miterlimit="10" width="8" height="8"/>
	<rect x="93.601" y="42.334" fill="none" stroke="#B9333D" stroke-width="2" stroke-miterlimit="10" width="8" height="8"/>
	<rect x="48.601" y="42.334" fill="none" stroke="#E1464B" stroke-width="2" stroke-miterlimit="10" width="8" height="8"/>
	<rect x="63.601" y="42.334" fill="none" stroke="#E1464B" stroke-width="2" stroke-miterlimit="10" width="8" height="8"/>
	<g>
		<rect x="47.267" y="85.334" fill="none" width="11.876" height="23.758"/>
		<polygon fill="none" points="14.695,109.092 45.267,109.092 45.267,83.334 75.02,83.334 75.02,109.092 105.591,109.092 
			105.591,25.805 96.695,25.805 14.695,107.805 		"/>
		<rect x="48.267" y="10.064" fill="none" width="23.753" height="23.753"/>
		<rect x="61.143" y="85.334" fill="none" width="11.876" height="23.758"/>
		<path fill="#B9333D" d="M96.695,25.805h8.896v83.287H75.02V83.334H45.267v25.758H14.695v-1.287l-4,4v1.287h98.896V21.805h-8.896
			L96.695,25.805z M59.143,109.092H47.267V85.334h11.876V109.092z M73.02,109.092H61.143V85.334H73.02V109.092z"/>
		<path fill="#E1464B" d="M14.695,25.805h29.572v12.012H76.02V25.805h20.676l4-4H76.02V6.064H44.267v15.741H10.695v90l4-4V25.805z
			 M48.267,10.064H72.02v23.753H48.267V10.064z"/>
	</g>
	<g>
		<rect x="79.601" y="43.333" fill="none" width="6" height="6"/>
		<polygon fill="#E1464B" points="77.601,41.333 77.601,44.899 81.167,41.333 		"/>
		<path fill="#B9333D" d="M77.601,44.899v6.434h10v-10h-6.434L77.601,44.899z M85.601,49.333h-6v-6h6V49.333z"/>
	</g>
	<g>
		<polygon fill="none" points="64.601,57.899 65.167,57.333 64.601,57.333 		"/>
		<polygon fill="none" points="64.601,63.333 70.601,63.333 70.601,57.333 65.167,57.333 64.601,57.899 		"/>
		<polygon fill="#E1464B" points="64.601,57.333 65.167,57.333 67.167,55.333 62.601,55.333 62.601,59.899 64.601,57.899 		"/>
		<polygon fill="#B9333D" points="65.167,57.333 70.601,57.333 70.601,63.333 64.601,63.333 64.601,57.899 62.601,59.899 
			62.601,65.333 72.601,65.333 72.601,55.333 67.167,55.333 		"/>
	</g>
	<g>
		<polygon fill="none" points="49.601,77.333 55.601,77.333 55.601,71.333 51.167,71.333 49.601,72.899 		"/>
		<polygon fill="none" points="49.601,72.899 51.167,71.333 49.601,71.333 		"/>
		<polygon fill="#E1464B" points="49.601,71.333 51.167,71.333 53.167,69.333 47.601,69.333 47.601,74.899 49.601,72.899 		"/>
		<polygon fill="#B9333D" points="51.167,71.333 55.601,71.333 55.601,77.333 49.601,77.333 49.601,72.899 47.601,74.899 
			47.601,79.333 57.601,79.333 57.601,69.333 53.167,69.333 		"/>
	</g>
	<g>
		<polygon fill="none" points="34.601,87.899 37.166,85.334 34.601,85.334 		"/>
		<polygon fill="none" points="34.601,91.334 40.601,91.334 40.601,85.334 37.166,85.334 34.601,87.899 		"/>
		<polygon fill="#B9333D" points="37.166,85.334 40.601,85.334 40.601,91.334 34.601,91.334 34.601,87.899 32.601,89.899 
			32.601,93.334 42.601,93.334 42.601,83.334 39.166,83.334 		"/>
		<polygon fill="#E1464B" points="34.601,85.334 37.166,85.334 39.166,83.334 32.601,83.334 32.601,89.899 34.601,87.899 		"/>
	</g>
</g>
</svg>
