<?xml version="1.0" encoding="utf-8"?>
<!-- Generator: Adobe Illustrator 17.0.0, SVG Export Plug-In . SVG Version: 6.00 Build 0)  -->
<!DOCTYPE svg PUBLIC "-//W3C//DTD SVG 1.1//EN" "http://www.w3.org/Graphics/SVG/1.1/DTD/svg11.dtd">
<svg version="1.1" id="Layer_1" xmlns="http://www.w3.org/2000/svg" xmlns:xlink="http://www.w3.org/1999/xlink" x="0px" y="0px"
	 width="120px" height="120px" viewBox="0 0 120 120" enable-background="new 0 0 120 120" xml:space="preserve">
<g>
	<path fill="#FFFFFF" d="M56.65,55.389c0.433,1.221,1.593,2.041,2.886,2.041c0.351,0,0.697-0.062,1.03-0.18
		c1.59-0.566,2.424-2.32,1.86-3.913l-1.231-3.462c-0.433-1.221-1.592-2.042-2.887-2.042c-0.349,0-0.693,0.06-1.025,0.178
		c-1.591,0.568-2.427,2.324-1.865,3.917L56.65,55.389z"/>
	<path fill="#FFFFFF" d="M87.678,75.909l-8.33-23.452c-2.797-7.872-10.284-13.161-18.632-13.161c-1.829,0-3.658,0.271-5.499,0.804
		c-1.563-2.398-1.425-5.433-1.276-8.627c0.18-3.83,0.383-8.17-2.766-11.381c-3.056-3.115-8.688-4.449-17.731-4.202
		c-1.38,0.038-2.468,1.188-2.43,2.568c0.038,1.381,1.19,2.454,2.568,2.43c7.344-0.205,12.065,0.708,14.024,2.705
		c1.622,1.654,1.492,4.43,1.341,7.645c-0.156,3.317-0.338,7.299,1.634,10.856c-3.365,1.992-6.016,4.897-7.724,8.487
		c-2.266,4.769-2.541,10.136-0.774,15.115l8.33,23.447c2.796,7.871,10.284,13.16,18.634,13.16c2.256,0,4.484-0.385,6.623-1.145
		C85.942,97.506,91.329,86.179,87.678,75.909z M55.68,44.909c1.632-0.579,3.327-0.873,5.035-0.873
		c6.345,0,12.037,4.022,14.164,10.008l0.463,1.305L47.012,65.41l-0.463-1.303c-1.343-3.78-1.134-7.861,0.588-11.489
		C48.864,48.99,51.897,46.252,55.68,44.909z M74.077,96.694c-1.618,0.576-3.311,0.869-5.031,0.869
		c-6.345,0-12.038-4.021-14.166-10.005L48.6,69.881l28.333-10.063l6.278,17.675C85.986,85.304,81.89,93.917,74.077,96.694z"/>
</g>
</svg>
