<?xml version="1.0" encoding="utf-8"?>
<!-- Generator: Adobe Illustrator 17.0.0, SVG Export Plug-In . SVG Version: 6.00 Build 0)  -->
<!DOCTYPE svg PUBLIC "-//W3C//DTD SVG 1.1//EN" "http://www.w3.org/Graphics/SVG/1.1/DTD/svg11.dtd">
<svg version="1.1" id="Layer_1" xmlns="http://www.w3.org/2000/svg" xmlns:xlink="http://www.w3.org/1999/xlink" x="0px" y="0px"
	 width="120px" height="120px" viewBox="0 0 120 120" enable-background="new 0 0 120 120" xml:space="preserve">
<g>
	<polygon fill="#B9333D" points="80.847,39.5 105.945,39.5 105.945,95.5 24.847,95.5 20.847,99.5 109.945,99.5 109.945,19.5 
		100.847,19.5 	"/>
	<path fill="#E1464B" d="M13.945,95.5v-56h66.902l20-20H9.945v80h10.902l4-4H13.945z M29.695,23.25h5v5h-5V23.25z M21.695,23.25h5v5
		h-5V23.25z M13.695,23.25h5v5h-5V23.25z"/>
</g>
<g>
	<polygon fill="#E1464B" points="39.564,61.496 33.033,68.026 42.71,77.637 49.247,71.1 	"/>
	<polygon fill="#B9333D" points="53.225,75.079 49.247,71.1 42.71,77.637 53.212,88.153 53.225,88.14 53.238,88.153 87.988,53.378 
		81.457,46.847 	"/>
</g>
</svg>
