<?xml version="1.0" encoding="utf-8"?>
<!-- Generator: Adobe Illustrator 17.0.0, SVG Export Plug-In . SVG Version: 6.00 Build 0)  -->
<!DOCTYPE svg PUBLIC "-//W3C//DTD SVG 1.1//EN" "http://www.w3.org/Graphics/SVG/1.1/DTD/svg11.dtd">
<svg version="1.1" id="Layer_1" xmlns="http://www.w3.org/2000/svg" xmlns:xlink="http://www.w3.org/1999/xlink" x="0px" y="0px"
	 width="120px" height="120px" viewBox="0 0 120 120" enable-background="new 0 0 120 120" xml:space="preserve">
<line fill="none" stroke="#E1464B" stroke-width="4" stroke-linecap="round" stroke-miterlimit="10" x1="36.475" y1="73.06" x2="18.308" y2="81.893"/>
<line fill="none" stroke="#E1464B" stroke-width="4" stroke-linecap="round" stroke-miterlimit="10" x1="12.308" y1="32.893" x2="30.475" y2="42.393"/>
<line fill="none" stroke="#E1464B" stroke-width="4" stroke-linecap="round" stroke-miterlimit="10" x1="31.728" y1="58.059" x2="4.975" y2="58.059"/>
<g>
	<path fill="#E1464B" d="M57.084,35.499c-4.613,3.41-5.442,8.388-4.382,13.965c0.853,4.483,3.945,9.346,5.766,8.528
		c1.844-0.829-0.343-3.316-1.568-6.084c-2.674-6.039,0.374-13.333,5.488-14.612c5.113-1.278,9.546,1.891,10.083,6.917
		c0.438,4.109-4.54,6.853-7.311,10.828l12.218-12.218C75.251,33.87,65.274,29.441,57.084,35.499z"/>
	<path fill="#B9333D" d="M72.598,60.057c-2.88-6.942,6.673-6.029,4.986-16.227c-0.057-0.342-0.127-0.677-0.206-1.007L65.161,55.041
		c-1.152,1.653-1.925,3.516-1.766,5.782c0.638,9.071,7.06,16.776,12.655,13.416c2.341-1.406,2.981-5.035,1.372-7.722
		C76.328,64.687,73.478,62.179,72.598,60.057z"/>
</g>
<g>
	<path fill="none" d="M64.647,28.677c-13.475-0.78-19.553,9.034-19,19.727c0.331,6.394,4.036,12.639,8.162,17.988l25.967-25.967
		C78.177,35.185,74.18,29.23,64.647,28.677z"/>
	<path fill="#B9333D" d="M80.696,45.221c0.383,4.518-1.098,9.547,1.544,9.452c2.467-0.09,3.882-10.783,1.078-17.789l-3.541,3.541
		C80.313,42.181,80.58,43.857,80.696,45.221z"/>
	<path fill="#B9333D" d="M81.463,74.863c-2.612,3.638,5.56,6.555,1.539,12.902c-1.868,2.949-4.427,4.84-8.301,4.84
		c-7.776,0-7.975-9.72-9.547-12.583c-1.467-2.673-6.676-7.577-11.345-13.63l-2.967,2.967c5.04,5.241,10.263,9.577,10.968,12.216
		c0.911,3.414,2.297,15.292,12.898,15.306c8.985,0.011,14.104-6.903,13.413-14.646C87.611,76.523,83.711,71.731,81.463,74.863z"/>
	<path fill="#E1464B" d="M45.647,48.404c-0.553-10.693,5.524-20.508,19-19.727c9.533,0.553,13.53,6.509,15.129,11.748l3.541-3.541
		c-0.107-0.267-0.218-0.531-0.338-0.787c-3.021-6.468-8.919-13.51-20.316-13.181C38.73,23.608,37.069,47.667,42.972,59.098
		c1.876,3.633,4.84,7.11,7.87,10.261l2.967-2.967C49.683,61.043,45.978,54.798,45.647,48.404z"/>
</g>
</svg>
